<?xml version="1.0" encoding="utf-8"?>
<!-- Generator: Adobe Illustrator 25.4.1, SVG Export Plug-In . SVG Version: 6.00 Build 0)  -->
<svg version="1.1" id="Capa_1" xmlns="http://www.w3.org/2000/svg" xmlns:xlink="http://www.w3.org/1999/xlink" x="0px" y="0px"
	 viewBox="0 0 1809.78 384" style="enable-background:new 0 0 1809.78 384;" xml:space="preserve">
<g>
	<path d="M205.11,234.05h-71.25l-18.25,40.25h-27.5l83-176.5l79,176.5h-27.5L205.11,234.05z M194.86,210.05l-24.75-56.5l-25.75,56.5
		H194.86z"/>
	<path d="M296.61,107.55v100.5c0,9,0.25,20,5.25,28.75c5,8.5,16.25,17.25,31,17.25s26-8.75,31-17.25c5-8.75,5.25-19.75,5.25-28.75
		v-100.5h25.5V214.8c0,13.25-2.75,29.25-15.5,43.25c-8.75,9.5-23.5,19.5-46.25,19.5s-37.5-10-46.25-19.5
		c-12.75-14-15.5-30-15.5-43.25V107.55H296.61z"/>
	<path d="M464.36,107.55c20.25,0,33.25,2.5,44,9.75c18.25,12.25,19.75,32,19.75,39.25c0,24-14.75,41.5-37,46.5l52,71.25h-30.75
		l-47.75-68.25h-4.5v68.25h-25.5V107.55H464.36z M460.11,184.05h8c7,0,35.5-0.75,35.5-27.25c0-23.5-22.25-25.75-34.75-25.75h-8.75
		V184.05z"/>
	<path d="M733.61,191.05c0,49-36.75,86.5-86.75,86.5s-86.75-37.5-86.75-86.5s36.75-86.5,86.75-86.5S733.61,142.05,733.61,191.05z
		 M708.11,191.05c0-37-25.5-63-61.25-63s-61.25,26-61.25,63s25.5,63,61.25,63S708.11,228.05,708.11,191.05z"/>
	<path d="M795.35,107.55c20.25,0,33.25,2.5,44,9.75c18.25,12.25,19.75,32,19.75,39.25c0,24-14.75,41.5-37,46.5l52,71.25h-30.75
		l-47.75-68.25h-4.5v68.25h-25.5V107.55H795.35z M791.1,184.05h8c7,0,35.5-0.75,35.5-27.25c0-23.5-22.25-25.75-34.75-25.75h-8.75
		V184.05z"/>
	<path d="M997.1,234.05h-71.25L907.6,274.3h-27.5l83-176.5l79,176.5h-27.5L997.1,234.05z M986.85,210.05l-24.75-56.5l-25.75,56.5
		H986.85z"/>
	<path d="M1139.35,107.55V241.8c0,7.75-0.25,19.25-8.25,27.5c-4.75,4.75-11.5,7.75-20.75,7.75c-7.75,0-13-2-18.25-6.25
		s-8.5-9.25-9.75-11.25l7.75-6.5c2,3.75,4.75,7.25,7.75,9.5c4.25,3.25,8.75,4.5,13,4.5c4.5,0,9-1.75,12-4.75
		c5.25-5.25,5.5-12.5,5.5-18.75v-136H1139.35z"/>
	<path d="M1348.35,191.3c0,48-37.75,85.75-86.5,85.75c-49,0-86.5-37.75-86.5-85.75s37.75-86,86.5-86S1348.35,143.3,1348.35,191.3z
		 M1336.85,191.3c0-42.75-32-76-75-76s-75,33.25-75,76c0,42.5,32,75.75,75,75.75S1336.85,233.8,1336.85,191.3z"/>
	<path d="M1377.34,107.55l49,142l47.5-142h12l-59.5,173.5l-61-173.5H1377.34z"/>
	<path d="M1591.84,117.55h-69v60.5h67.5v10h-67.5v76.25h69v10h-80V107.55h80V117.55z"/>
	<path d="M1697.84,274.3l-54-78.75h-5v78.75h-11V107.55h24c12.75,0,24.25,1,35.25,8.5c13,9,17.25,22.75,17.25,35.75
		c0,16.5-7.25,33.5-28,40.5c-8.75,3-16.75,3.25-20.5,3.25l54.5,78.75H1697.84z M1638.84,185.55h16c23.75,0,38-12.5,38-34
		c0-16.75-8.25-25.5-14.75-29c-7-4-19-5-25.5-5h-13.75V185.55z"/>
</g>
</svg>
